<svg width="43" height="43" viewBox="0 0 43 43" fill="none" xmlns="http://www.w3.org/2000/svg">
<g clip-path="url(#clip0_1021_141)">
<path d="M1.46495e-05 14.6707L1.52908e-05 -6.41276e-07L14.6707 0L14.6707 14.6707L1.46495e-05 14.6707ZM0.501064 0.501048L0.501063 14.1696L14.1697 14.1696L14.1697 0.501048L0.501064 0.501048Z" fill="#9A9A9A"/>
<path d="M1.46495e-05 28.8303L1.52908e-05 14.1596L14.6707 14.1596L14.6707 28.8303L1.46495e-05 28.8303ZM0.501064 14.6707L0.501063 28.3393L14.1697 28.3393L14.1697 14.6707L0.501064 14.6707Z" fill="#9A9A9A"/>
<path d="M14.1697 28.8303L14.1697 14.1596L28.8404 14.1596L28.8404 28.8303L14.1697 28.8303ZM14.6707 14.6707L14.6707 28.3393L28.3393 28.3393L28.3393 14.6707L14.6707 14.6707Z" fill="#9A9A9A"/>
<path d="M1.46495e-05 43L1.52908e-05 28.3293L14.6707 28.3293L14.6707 43L1.46495e-05 43ZM0.501064 28.8303L0.501063 42.4989L14.1697 42.4989L14.1697 28.8303L0.501064 28.8303Z" fill="#9A9A9A"/>
<path d="M14.1697 43L14.1697 28.3293L28.8404 28.3293L28.8404 43L14.1697 43ZM14.6707 28.8303L14.6707 42.4989L28.3393 42.4989L28.3393 28.8303L14.6707 28.8303Z" fill="#9A9A9A"/>
<path d="M28.3293 43L28.3293 28.3293L43 28.3293L43 43L28.3293 43ZM28.8304 28.8303L28.8304 42.4989L42.499 42.4989L42.499 28.8303L28.8304 28.8303Z" fill="#9A9A9A"/>
</g>
<defs>
<clipPath id="clip0_1021_141">
<rect width="42.91" height="42.91" fill="white" transform="translate(43) scale(1.0021) rotate(90)"/>
</clipPath>
</defs>
</svg>
