<svg width="191" height="598" viewBox="0 0 191 598" fill="none" xmlns="http://www.w3.org/2000/svg">
<g clip-path="url(#clip0_1021_162)">
<path d="M190.699 43.1778L149.995 0L95.5022 51.3561L41.005 0L0.305176 43.1778L52.2406 92.123L0.305176 141.068L41.005 184.246L95.5022 132.89L149.995 184.246L190.699 141.068L138.759 92.123L190.699 43.1778Z" fill="#9A9A9A"/>
<path d="M190.699 249.904L149.995 206.727L95.5022 258.078L41.005 206.727L0.305176 249.904L52.2406 298.85L0.305176 347.79L41.005 390.973L95.5022 339.616L149.995 390.973L190.699 347.79L138.759 298.85L190.699 249.904Z" stroke="#9A9A9A" stroke-miterlimit="10"/>
<path d="M190.699 456.631L149.995 413.453L95.5022 464.805L41.005 413.453L0.305176 456.631L52.2406 505.572L0.305176 554.517L41.005 597.695L95.5022 546.343L149.995 597.695L190.699 554.517L138.759 505.572L190.699 456.631Z" stroke="#9A9A9A" stroke-miterlimit="10"/>
</g>
<defs>
<clipPath id="clip0_1021_162">
<rect width="191" height="598" fill="white"/>
</clipPath>
</defs>
</svg>
